<svg xmlns="http://www.w3.org/2000/svg" width="23.666" height="20.075" viewBox="0 0 23.666 20.075">
  <g id="grupo" transform="translate(0 -38.84)">
    <g id="Grupo_142" data-name="Grupo 142" transform="translate(18.42 49.678)">
      <g id="Grupo_141" data-name="Grupo 141" transform="translate(0 0)">
        <path id="Caminho_123" data-name="Caminho 123" d="M400.324,273.32h-1.83a4.762,4.762,0,0,1,.288,1.636v6.917a2.04,2.04,0,0,1-.118.683h3.026a2.052,2.052,0,0,0,2.05-2.05v-3.771A3.42,3.42,0,0,0,400.324,273.32Z" transform="translate(-398.494 -273.32)" fill="#fff"/>
      </g>
    </g>
    <g id="Grupo_144" data-name="Grupo 144" transform="translate(0 49.678)">
      <g id="Grupo_143" data-name="Grupo 143" transform="translate(0 0)">
        <path id="Caminho_124" data-name="Caminho 124" d="M4.958,274.957a4.761,4.761,0,0,1,.288-1.636H3.416A3.42,3.42,0,0,0,0,276.737v3.771a2.052,2.052,0,0,0,2.05,2.05H5.076a2.041,2.041,0,0,1-.118-.683Z" transform="translate(0 -273.321)" fill="#fff"/>
      </g>
    </g>
    <g id="Grupo_146" data-name="Grupo 146" transform="translate(6.325 47.899)">
      <g id="Grupo_145" data-name="Grupo 145" transform="translate(0 0)">
        <path id="Caminho_125" data-name="Caminho 125" d="M144.429,234.815h-4.184a3.42,3.42,0,0,0-3.416,3.416v6.917a.683.683,0,0,0,.683.683h9.65a.683.683,0,0,0,.683-.683v-6.917A3.42,3.42,0,0,0,144.429,234.815Z" transform="translate(-136.829 -234.815)" fill="#fff"/>
      </g>
    </g>
    <g id="Grupo_148" data-name="Grupo 148" transform="translate(7.724 38.84)">
      <g id="Grupo_147" data-name="Grupo 147" transform="translate(0 0)">
        <path id="Caminho_126" data-name="Caminho 126" d="M171.223,38.84a4.108,4.108,0,1,0,4.109,4.109A4.113,4.113,0,0,0,171.223,38.84Z" transform="translate(-167.114 -38.84)" fill="#fff"/>
      </g>
    </g>
    <g id="Grupo_150" data-name="Grupo 150" transform="translate(1.546 42.67)">
      <g id="Grupo_149" data-name="Grupo 149" transform="translate(0 0)">
        <path id="Caminho_127" data-name="Caminho 127" d="M36.516,121.689a3.071,3.071,0,1,0,3.073,3.073A3.076,3.076,0,0,0,36.516,121.689Z" transform="translate(-33.443 -121.689)" fill="#fff"/>
      </g>
    </g>
    <g id="Grupo_152" data-name="Grupo 152" transform="translate(15.975 42.67)">
      <g id="Grupo_151" data-name="Grupo 151" transform="translate(0 0)">
        <path id="Caminho_128" data-name="Caminho 128" d="M348.68,121.689a3.073,3.073,0,1,0,3.073,3.073A3.076,3.076,0,0,0,348.68,121.689Z" transform="translate(-345.607 -121.689)" fill="#fff"/>
      </g>
    </g>
  </g>
</svg>
