<svg xmlns="http://www.w3.org/2000/svg" width="19.349" height="20.9" viewBox="0 0 19.349 20.9">
  <g id="money-back" transform="translate(-18.993 -0.001)">
    <path id="Caminho_118" data-name="Caminho 118" d="M35.624,4.5A9.62,9.62,0,0,0,30.048,1.65l.6-.6a.612.612,0,0,0-.866-.866L28.235,1.731a.612.612,0,0,0,0,.866l1.551,1.551a.612.612,0,0,0,.866-.866L30.3,2.935a8.444,8.444,0,1,1-4.479.331.612.612,0,0,0-.412-1.153A9.677,9.677,0,1,0,35.624,4.5Z" fill="#fff"/>
    <path id="Caminho_119" data-name="Caminho 119" d="M101.884,127.168a6.291,6.291,0,1,0,6.291-6.291A6.3,6.3,0,0,0,101.884,127.168Zm6.667.545a6.132,6.132,0,0,1-1.763-.848,1.637,1.637,0,0,1-.545-1.612,1.831,1.831,0,0,1,1.257-1.435l.027-.007v-.247a.612.612,0,1,1,1.225,0v.208a2.338,2.338,0,0,1,.847.386.612.612,0,1,1-.733.981,1.117,1.117,0,0,0-1.011-.148.62.62,0,0,0-.407.489.446.446,0,0,0,.1.422,5.585,5.585,0,0,0,1.415.657,1.937,1.937,0,0,1,1.316,2.192A2.2,2.2,0,0,1,109.6,130a2.1,2.1,0,0,1-.845.476v.293a.612.612,0,1,1-1.225,0v-.233a2.612,2.612,0,0,1-1.2-.472.612.612,0,1,1,.67-1.025,1.574,1.574,0,0,0,1.142.3.939.939,0,0,0,.932-.792A.712.712,0,0,0,108.551,127.713Z" transform="translate(-79.507 -115.942)" fill="#fff"/>
  </g>
</svg>
