<svg id="dashboard" xmlns="http://www.w3.org/2000/svg" width="20" height="20" viewBox="0 0 20 20">
  <path id="Caminho_108" data-name="Caminho 108" d="M7.535,0H1.425A1.427,1.427,0,0,0,0,1.425V5.091A1.427,1.427,0,0,0,1.425,6.517h6.11A1.427,1.427,0,0,0,8.961,5.091V1.425A1.427,1.427,0,0,0,7.535,0Zm0,0" transform="translate(0 0)" fill="#fff"/>
  <path id="Caminho_109" data-name="Caminho 109" d="M7.535,213.332H1.425A1.427,1.427,0,0,0,0,214.758v8.553a1.427,1.427,0,0,0,1.425,1.426h6.11a1.427,1.427,0,0,0,1.426-1.426v-8.553A1.427,1.427,0,0,0,7.535,213.332Zm0,0" transform="translate(0 -204.736)" fill="#fff"/>
  <path id="Caminho_110" data-name="Caminho 110" d="M284.867,341.332h-6.11a1.427,1.427,0,0,0-1.426,1.426v3.666a1.427,1.427,0,0,0,1.426,1.426h6.11a1.427,1.427,0,0,0,1.425-1.426v-3.666A1.427,1.427,0,0,0,284.867,341.332Zm0,0" transform="translate(-266.293 -327.849)" fill="#fff"/>
  <path id="Caminho_111" data-name="Caminho 111" d="M284.867,0h-6.11a1.427,1.427,0,0,0-1.426,1.425V9.979a1.427,1.427,0,0,0,1.426,1.426h6.11a1.427,1.427,0,0,0,1.425-1.426V1.425A1.427,1.427,0,0,0,284.867,0Zm0,0" transform="translate(-266.293 0)" fill="#fff"/>
</svg>
